<svg class="main-svg" xmlns="http://www.w3.org/2000/svg" xmlns:xlink="http://www.w3.org/1999/xlink" width="800" height="600" style=""><rect x="0" y="0" width="800" height="600" style="fill: rgb(255, 255, 255); fill-opacity: 1;"/><defs id="defs-773dce"><g class="gradients"/><g class="clips"><clipPath class="axesclip" id="clip773dcex"><rect x="80" y="0" width="640" height="600"/></clipPath><clipPath class="axesclip" id="clip773dcey"><rect x="0" y="100" width="800" height="420"/></clipPath><clipPath class="axesclip" id="clip773dcexy"><rect x="80" y="100" width="640" height="420"/></clipPath><clipPath class="plotclip" id="clip773dcexyplot"><rect width="640" height="420"/></clipPath></g></defs><g class="bglayer"><rect class="bg" x="80" y="100" width="640" height="420" style="fill: rgb(255, 255, 255); fill-opacity: 1; stroke-width: 0;"/></g><g class="layer-below"><g class="imagelayer"/><g class="shapelayer"/></g><g class="cartesianlayer"><g class="subplot xy"><g class="layer-subplot"><g class="shapelayer"/><g class="imagelayer"/></g><g class="gridlayer" transform="translate(80,100)"><path class="xgrid crisp" d="M0,0v420" transform="translate(14.55,0)" style="stroke: rgb(238, 238, 238); stroke-opacity: 1; stroke-width: 1px;"/><path class="xgrid crisp" d="M0,0v420" transform="translate(29.09,0)" style="stroke: rgb(238, 238, 238); stroke-opacity: 1; stroke-width: 1px;"/><path class="xgrid crisp" d="M0,0v420" transform="translate(43.64,0)" style="stroke: rgb(238, 238, 238); stroke-opacity: 1; stroke-width: 1px;"/><path class="xgrid crisp" d="M0,0v420" transform="translate(58.18,0)" style="stroke: rgb(238, 238, 238); stroke-opacity: 1; stroke-width: 1px;"/><path class="xgrid crisp" d="M0,0v420" transform="translate(72.73,0)" style="stroke: rgb(238, 238, 238); stroke-opacity: 1; stroke-width: 1px;"/><path class="xgrid crisp" d="M0,0v420" transform="translate(87.27,0)" style="stroke: rgb(238, 238, 238); stroke-opacity: 1; stroke-width: 1px;"/><path class="xgrid crisp" d="M0,0v420" transform="translate(101.82,0)" style="stroke: rgb(238, 238, 238); stroke-opacity: 1; stroke-width: 1px;"/><path class="xgrid crisp" d="M0,0v420" transform="translate(116.36,0)" style="stroke: rgb(238, 238, 238); stroke-opacity: 1; stroke-width: 1px;"/><path class="xgrid crisp" d="M0,0v420" transform="translate(130.91,0)" style="stroke: rgb(238, 238, 238); stroke-opacity: 1; stroke-width: 1px;"/><path class="xgrid crisp" d="M0,0v420" transform="translate(145.45,0)" style="stroke: rgb(238, 238, 238); stroke-opacity: 1; stroke-width: 1px;"/><path class="xgrid crisp" d="M0,0v420" transform="translate(160,0)" style="stroke: rgb(238, 238, 238); stroke-opacity: 1; stroke-width: 1px;"/><path class="xgrid crisp" d="M0,0v420" transform="translate(174.55,0)" style="stroke: rgb(238, 238, 238); stroke-opacity: 1; stroke-width: 1px;"/><path class="xgrid crisp" d="M0,0v420" transform="translate(189.09,0)" style="stroke: rgb(238, 238, 238); stroke-opacity: 1; stroke-width: 1px;"/><path class="xgrid crisp" d="M0,0v420" transform="translate(203.64,0)" style="stroke: rgb(238, 238, 238); stroke-opacity: 1; stroke-width: 1px;"/><path class="xgrid crisp" d="M0,0v420" transform="translate(218.18,0)" style="stroke: rgb(238, 238, 238); stroke-opacity: 1; stroke-width: 1px;"/><path class="xgrid crisp" d="M0,0v420" transform="translate(232.73,0)" style="stroke: rgb(238, 238, 238); stroke-opacity: 1; stroke-width: 1px;"/><path class="xgrid crisp" d="M0,0v420" transform="translate(247.27,0)" style="stroke: rgb(238, 238, 238); stroke-opacity: 1; stroke-width: 1px;"/><path class="xgrid crisp" d="M0,0v420" transform="translate(261.82,0)" style="stroke: rgb(238, 238, 238); stroke-opacity: 1; stroke-width: 1px;"/><path class="xgrid crisp" d="M0,0v420" transform="translate(276.36,0)" style="stroke: rgb(238, 238, 238); stroke-opacity: 1; stroke-width: 1px;"/><path class="xgrid crisp" d="M0,0v420" transform="translate(290.91,0)" style="stroke: rgb(238, 238, 238); stroke-opacity: 1; stroke-width: 1px;"/><path class="xgrid crisp" d="M0,0v420" transform="translate(305.45,0)" style="stroke: rgb(238, 238, 238); stroke-opacity: 1; stroke-width: 1px;"/><path class="xgrid crisp" d="M0,0v420" transform="translate(320,0)" style="stroke: rgb(238, 238, 238); stroke-opacity: 1; stroke-width: 1px;"/><path class="xgrid crisp" d="M0,0v420" transform="translate(334.55,0)" style="stroke: rgb(238, 238, 238); stroke-opacity: 1; stroke-width: 1px;"/><path class="xgrid crisp" d="M0,0v420" transform="translate(349.09,0)" style="stroke: rgb(238, 238, 238); stroke-opacity: 1; stroke-width: 1px;"/><path class="xgrid crisp" d="M0,0v420" transform="translate(363.64,0)" style="stroke: rgb(238, 238, 238); stroke-opacity: 1; stroke-width: 1px;"/><path class="xgrid crisp" d="M0,0v420" transform="translate(378.18,0)" style="stroke: rgb(238, 238, 238); stroke-opacity: 1; stroke-width: 1px;"/><path class="xgrid crisp" d="M0,0v420" transform="translate(392.73,0)" style="stroke: rgb(238, 238, 238); stroke-opacity: 1; stroke-width: 1px;"/><path class="xgrid crisp" d="M0,0v420" transform="translate(407.27,0)" style="stroke: rgb(238, 238, 238); stroke-opacity: 1; stroke-width: 1px;"/><path class="xgrid crisp" d="M0,0v420" transform="translate(421.82,0)" style="stroke: rgb(238, 238, 238); stroke-opacity: 1; stroke-width: 1px;"/><path class="xgrid crisp" d="M0,0v420" transform="translate(436.36,0)" style="stroke: rgb(238, 238, 238); stroke-opacity: 1; stroke-width: 1px;"/><path class="xgrid crisp" d="M0,0v420" transform="translate(450.91,0)" style="stroke: rgb(238, 238, 238); stroke-opacity: 1; stroke-width: 1px;"/><path class="xgrid crisp" d="M0,0v420" transform="translate(465.45,0)" style="stroke: rgb(238, 238, 238); stroke-opacity: 1; stroke-width: 1px;"/><path class="xgrid crisp" d="M0,0v420" transform="translate(480,0)" style="stroke: rgb(238, 238, 238); stroke-opacity: 1; stroke-width: 1px;"/><path class="xgrid crisp" d="M0,0v420" transform="translate(494.55,0)" style="stroke: rgb(238, 238, 238); stroke-opacity: 1; stroke-width: 1px;"/><path class="xgrid crisp" d="M0,0v420" transform="translate(509.09,0)" style="stroke: rgb(238, 238, 238); stroke-opacity: 1; stroke-width: 1px;"/><path class="xgrid crisp" d="M0,0v420" transform="translate(523.64,0)" style="stroke: rgb(238, 238, 238); stroke-opacity: 1; stroke-width: 1px;"/><path class="xgrid crisp" d="M0,0v420" transform="translate(538.18,0)" style="stroke: rgb(238, 238, 238); stroke-opacity: 1; stroke-width: 1px;"/><path class="xgrid crisp" d="M0,0v420" transform="translate(552.73,0)" style="stroke: rgb(238, 238, 238); stroke-opacity: 1; stroke-width: 1px;"/><path class="xgrid crisp" d="M0,0v420" transform="translate(567.27,0)" style="stroke: rgb(238, 238, 238); stroke-opacity: 1; stroke-width: 1px;"/><path class="xgrid crisp" d="M0,0v420" transform="translate(581.82,0)" style="stroke: rgb(238, 238, 238); stroke-opacity: 1; stroke-width: 1px;"/><path class="xgrid crisp" d="M0,0v420" transform="translate(596.36,0)" style="stroke: rgb(238, 238, 238); stroke-opacity: 1; stroke-width: 1px;"/><path class="xgrid crisp" d="M0,0v420" transform="translate(610.91,0)" style="stroke: rgb(238, 238, 238); stroke-opacity: 1; stroke-width: 1px;"/><path class="xgrid crisp" d="M0,0v420" transform="translate(625.45,0)" style="stroke: rgb(238, 238, 238); stroke-opacity: 1; stroke-width: 1px;"/><path class="ygrid crisp" d="M0,0h640" transform="translate(0,359.21)" style="stroke: rgb(238, 238, 238); stroke-opacity: 1; stroke-width: 1px;"/><path class="ygrid crisp" d="M0,0h640" transform="translate(0,309.47)" style="stroke: rgb(238, 238, 238); stroke-opacity: 1; stroke-width: 1px;"/><path class="ygrid crisp" d="M0,0h640" transform="translate(0,259.74)" style="stroke: rgb(238, 238, 238); stroke-opacity: 1; stroke-width: 1px;"/><path class="ygrid crisp" d="M0,0h640" transform="translate(0,210)" style="stroke: rgb(238, 238, 238); stroke-opacity: 1; stroke-width: 1px;"/><path class="ygrid crisp" d="M0,0h640" transform="translate(0,160.26)" style="stroke: rgb(238, 238, 238); stroke-opacity: 1; stroke-width: 1px;"/><path class="ygrid crisp" d="M0,0h640" transform="translate(0,110.53)" style="stroke: rgb(238, 238, 238); stroke-opacity: 1; stroke-width: 1px;"/><path class="ygrid crisp" d="M0,0h640" transform="translate(0,60.79)" style="stroke: rgb(238, 238, 238); stroke-opacity: 1; stroke-width: 1px;"/><path class="ygrid crisp" d="M0,0h640" transform="translate(0,11.05)" style="stroke: rgb(238, 238, 238); stroke-opacity: 1; stroke-width: 1px;"/></g><g class="overgrid"/><g class="zerolinelayer" transform="translate(80,100)"><path class="yzl zl crisp" d="M0,0h640" transform="translate(0,408.95)" style="stroke: rgb(68, 68, 68); stroke-opacity: 1; stroke-width: 1px;"/></g><g class="overzero"/><path class="xlines-below"/><path class="ylines-below"/><g class="overlines-below"/><g class="xaxislayer-below"/><g class="yaxislayer-below"/><g class="overaxes-below"/><g class="plot" transform="translate(80, 100)" clip-path="url(#clip773dcexyplot)"><g class="imagelayer"/><g class="maplayer"/><g class="barlayer"/><g class="carpetlayer"/><g class="boxlayer"/><g class="scatterlayer"><g class="trace scatter trace09b510" style="stroke-miterlimit: 2; opacity: 1;"><path class="js-line" d="M0,369.16L14.55,379.11L29.09,369.16L58.18,389.05L72.73,369.16L87.27,359.21L101.82,389.05L116.36,369.16L130.91,369.16L145.45,379.11L160,359.21L174.55,329.37L189.09,329.37L203.64,319.42L218.18,279.63L232.73,339.32L247.27,359.21L261.82,399L276.36,369.16L290.91,379.11L305.45,399L320,309.47L334.55,379.11L349.09,379.11L363.64,249.79L378.18,369.16L392.73,279.63L407.27,379.11L421.82,21L436.36,399L450.91,389.05L465.45,379.11L480,339.32L494.55,389.05L509.09,359.21L523.64,389.05L538.18,379.11L552.73,389.05L567.27,379.11L581.82,369.16L596.36,369.16L610.91,399L625.45,389.05L640,399" style="vector-effect: non-scaling-stroke; fill: none; stroke: rgb(31, 119, 180); stroke-opacity: 1; stroke-width: 2px; opacity: 1;"/><g class="points"/></g></g></g><g class="overplot"/><path class="xlines-above crisp" transform="translate(80,100)" d="M-1,420.5H640" style="fill: none; stroke-width: 1px; stroke: rgb(0, 0, 0); stroke-opacity: 0;"/><path class="ylines-above crisp" transform="translate(80,100)" d="M-0.5,0V420" style="fill: none; stroke-width: 1px; stroke: rgb(0, 0, 0); stroke-opacity: 0;"/><g class="overlines-above"/><g class="xaxislayer-above" transform="translate(80,100)"><g class="xtick"><text text-anchor="start" x="0" y="433" transform="translate(0,0) rotate(90,0,427)" style="font-family: 'Open Sans', verdana, arial, sans-serif; font-size: 12px; fill: rgb(68, 68, 68); fill-opacity: 1; white-space: pre;">29 July 2017</text></g><g class="xtick"><text text-anchor="start" x="0" y="433" transform="translate(14.55,0) rotate(90,0,427)" style="font-family: 'Open Sans', verdana, arial, sans-serif; font-size: 12px; fill: rgb(68, 68, 68); fill-opacity: 1; white-space: pre;">30 July 2017</text></g><g class="xtick"><text text-anchor="start" x="0" y="433" transform="translate(29.09,0) rotate(90,0,427)" style="font-family: 'Open Sans', verdana, arial, sans-serif; font-size: 12px; fill: rgb(68, 68, 68); fill-opacity: 1; white-space: pre;">31 July 2017</text></g><g class="xtick"><text text-anchor="start" x="0" y="433" transform="translate(43.64,0) rotate(90,0,427)" style="font-family: 'Open Sans', verdana, arial, sans-serif; font-size: 12px; fill: rgb(68, 68, 68); fill-opacity: 1; white-space: pre;">01 August 2017</text></g><g class="xtick"><text text-anchor="start" x="0" y="433" transform="translate(58.18,0) rotate(90,0,427)" style="font-family: 'Open Sans', verdana, arial, sans-serif; font-size: 12px; fill: rgb(68, 68, 68); fill-opacity: 1; white-space: pre;">02 August 2017</text></g><g class="xtick"><text text-anchor="start" x="0" y="433" transform="translate(72.73,0) rotate(90,0,427)" style="font-family: 'Open Sans', verdana, arial, sans-serif; font-size: 12px; fill: rgb(68, 68, 68); fill-opacity: 1; white-space: pre;">03 August 2017</text></g><g class="xtick"><text text-anchor="start" x="0" y="433" transform="translate(87.27,0) rotate(90,0,427)" style="font-family: 'Open Sans', verdana, arial, sans-serif; font-size: 12px; fill: rgb(68, 68, 68); fill-opacity: 1; white-space: pre;">04 August 2017</text></g><g class="xtick"><text text-anchor="start" x="0" y="433" transform="translate(101.82,0) rotate(90,0,427)" style="font-family: 'Open Sans', verdana, arial, sans-serif; font-size: 12px; fill: rgb(68, 68, 68); fill-opacity: 1; white-space: pre;">05 August 2017</text></g><g class="xtick"><text text-anchor="start" x="0" y="433" transform="translate(116.36,0) rotate(90,0,427)" style="font-family: 'Open Sans', verdana, arial, sans-serif; font-size: 12px; fill: rgb(68, 68, 68); fill-opacity: 1; white-space: pre;">07 August 2017</text></g><g class="xtick"><text text-anchor="start" x="0" y="433" transform="translate(130.91,0) rotate(90,0,427)" style="font-family: 'Open Sans', verdana, arial, sans-serif; font-size: 12px; fill: rgb(68, 68, 68); fill-opacity: 1; white-space: pre;">08 August 2017</text></g><g class="xtick"><text text-anchor="start" x="0" y="433" transform="translate(145.45,0) rotate(90,0,427)" style="font-family: 'Open Sans', verdana, arial, sans-serif; font-size: 12px; fill: rgb(68, 68, 68); fill-opacity: 1; white-space: pre;">09 August 2017</text></g><g class="xtick"><text text-anchor="start" x="0" y="433" transform="translate(160,0) rotate(90,0,427)" style="font-family: 'Open Sans', verdana, arial, sans-serif; font-size: 12px; fill: rgb(68, 68, 68); fill-opacity: 1; white-space: pre;">10 August 2017</text></g><g class="xtick"><text text-anchor="start" x="0" y="433" transform="translate(174.55,0) rotate(90,0,427)" style="font-family: 'Open Sans', verdana, arial, sans-serif; font-size: 12px; fill: rgb(68, 68, 68); fill-opacity: 1; white-space: pre;">11 August 2017</text></g><g class="xtick"><text text-anchor="start" x="0" y="433" transform="translate(189.09,0) rotate(90,0,427)" style="font-family: 'Open Sans', verdana, arial, sans-serif; font-size: 12px; fill: rgb(68, 68, 68); fill-opacity: 1; white-space: pre;">12 August 2017</text></g><g class="xtick"><text text-anchor="start" x="0" y="433" transform="translate(203.64,0) rotate(90,0,427)" style="font-family: 'Open Sans', verdana, arial, sans-serif; font-size: 12px; fill: rgb(68, 68, 68); fill-opacity: 1; white-space: pre;">13 August 2017</text></g><g class="xtick"><text text-anchor="start" x="0" y="433" transform="translate(218.18,0) rotate(90,0,427)" style="font-family: 'Open Sans', verdana, arial, sans-serif; font-size: 12px; fill: rgb(68, 68, 68); fill-opacity: 1; white-space: pre;">14 August 2017</text></g><g class="xtick"><text text-anchor="start" x="0" y="433" transform="translate(232.73,0) rotate(90,0,427)" style="font-family: 'Open Sans', verdana, arial, sans-serif; font-size: 12px; fill: rgb(68, 68, 68); fill-opacity: 1; white-space: pre;">15 August 2017</text></g><g class="xtick"><text text-anchor="start" x="0" y="433" transform="translate(247.27,0) rotate(90,0,427)" style="font-family: 'Open Sans', verdana, arial, sans-serif; font-size: 12px; fill: rgb(68, 68, 68); fill-opacity: 1; white-space: pre;">16 August 2017</text></g><g class="xtick"><text text-anchor="start" x="0" y="433" transform="translate(261.82,0) rotate(90,0,427)" style="font-family: 'Open Sans', verdana, arial, sans-serif; font-size: 12px; fill: rgb(68, 68, 68); fill-opacity: 1; white-space: pre;">17 August 2017</text></g><g class="xtick"><text text-anchor="start" x="0" y="433" transform="translate(276.36,0) rotate(90,0,427)" style="font-family: 'Open Sans', verdana, arial, sans-serif; font-size: 12px; fill: rgb(68, 68, 68); fill-opacity: 1; white-space: pre;">19 August 2017</text></g><g class="xtick"><text text-anchor="start" x="0" y="433" transform="translate(290.91,0) rotate(90,0,427)" style="font-family: 'Open Sans', verdana, arial, sans-serif; font-size: 12px; fill: rgb(68, 68, 68); fill-opacity: 1; white-space: pre;">20 August 2017</text></g><g class="xtick"><text text-anchor="start" x="0" y="433" transform="translate(305.45,0) rotate(90,0,427)" style="font-family: 'Open Sans', verdana, arial, sans-serif; font-size: 12px; fill: rgb(68, 68, 68); fill-opacity: 1; white-space: pre;">21 August 2017</text></g><g class="xtick"><text text-anchor="start" x="0" y="433" transform="translate(320,0) rotate(90,0,427)" style="font-family: 'Open Sans', verdana, arial, sans-serif; font-size: 12px; fill: rgb(68, 68, 68); fill-opacity: 1; white-space: pre;">22 August 2017</text></g><g class="xtick"><text text-anchor="start" x="0" y="433" transform="translate(334.55,0) rotate(90,0,427)" style="font-family: 'Open Sans', verdana, arial, sans-serif; font-size: 12px; fill: rgb(68, 68, 68); fill-opacity: 1; white-space: pre;">23 August 2017</text></g><g class="xtick"><text text-anchor="start" x="0" y="433" transform="translate(349.09,0) rotate(90,0,427)" style="font-family: 'Open Sans', verdana, arial, sans-serif; font-size: 12px; fill: rgb(68, 68, 68); fill-opacity: 1; white-space: pre;">24 August 2017</text></g><g class="xtick"><text text-anchor="start" x="0" y="433" transform="translate(363.64,0) rotate(90,0,427)" style="font-family: 'Open Sans', verdana, arial, sans-serif; font-size: 12px; fill: rgb(68, 68, 68); fill-opacity: 1; white-space: pre;">25 August 2017</text></g><g class="xtick"><text text-anchor="start" x="0" y="433" transform="translate(378.18,0) rotate(90,0,427)" style="font-family: 'Open Sans', verdana, arial, sans-serif; font-size: 12px; fill: rgb(68, 68, 68); fill-opacity: 1; white-space: pre;">26 August 2017</text></g><g class="xtick"><text text-anchor="start" x="0" y="433" transform="translate(392.73,0) rotate(90,0,427)" style="font-family: 'Open Sans', verdana, arial, sans-serif; font-size: 12px; fill: rgb(68, 68, 68); fill-opacity: 1; white-space: pre;">27 August 2017</text></g><g class="xtick"><text text-anchor="start" x="0" y="433" transform="translate(407.27,0) rotate(90,0,427)" style="font-family: 'Open Sans', verdana, arial, sans-serif; font-size: 12px; fill: rgb(68, 68, 68); fill-opacity: 1; white-space: pre;">28 August 2017</text></g><g class="xtick"><text text-anchor="start" x="0" y="433" transform="translate(421.82,0) rotate(90,0,427)" style="font-family: 'Open Sans', verdana, arial, sans-serif; font-size: 12px; fill: rgb(68, 68, 68); fill-opacity: 1; white-space: pre;">29 August 2017</text></g><g class="xtick"><text text-anchor="start" x="0" y="433" transform="translate(436.36,0) rotate(90,0,427)" style="font-family: 'Open Sans', verdana, arial, sans-serif; font-size: 12px; fill: rgb(68, 68, 68); fill-opacity: 1; white-space: pre;">30 August 2017</text></g><g class="xtick"><text text-anchor="start" x="0" y="433" transform="translate(450.91,0) rotate(90,0,427)" style="font-family: 'Open Sans', verdana, arial, sans-serif; font-size: 12px; fill: rgb(68, 68, 68); fill-opacity: 1; white-space: pre;">31 August 2017</text></g><g class="xtick"><text text-anchor="start" x="0" y="433" transform="translate(465.45,0) rotate(90,0,427)" style="font-family: 'Open Sans', verdana, arial, sans-serif; font-size: 12px; fill: rgb(68, 68, 68); fill-opacity: 1; white-space: pre;">01 September 2017</text></g><g class="xtick"><text text-anchor="start" x="0" y="433" transform="translate(480,0) rotate(90,0,427)" style="font-family: 'Open Sans', verdana, arial, sans-serif; font-size: 12px; fill: rgb(68, 68, 68); fill-opacity: 1; white-space: pre;">02 September 2017</text></g><g class="xtick"><text text-anchor="start" x="0" y="433" transform="translate(494.55,0) rotate(90,0,427)" style="font-family: 'Open Sans', verdana, arial, sans-serif; font-size: 12px; fill: rgb(68, 68, 68); fill-opacity: 1; white-space: pre;">04 September 2017</text></g><g class="xtick"><text text-anchor="start" x="0" y="433" transform="translate(509.09,0) rotate(90,0,427)" style="font-family: 'Open Sans', verdana, arial, sans-serif; font-size: 12px; fill: rgb(68, 68, 68); fill-opacity: 1; white-space: pre;">05 September 2017</text></g><g class="xtick"><text text-anchor="start" x="0" y="433" transform="translate(523.64,0) rotate(90,0,427)" style="font-family: 'Open Sans', verdana, arial, sans-serif; font-size: 12px; fill: rgb(68, 68, 68); fill-opacity: 1; white-space: pre;">06 September 2017</text></g><g class="xtick"><text text-anchor="start" x="0" y="433" transform="translate(538.18,0) rotate(90,0,427)" style="font-family: 'Open Sans', verdana, arial, sans-serif; font-size: 12px; fill: rgb(68, 68, 68); fill-opacity: 1; white-space: pre;">07 September 2017</text></g><g class="xtick"><text text-anchor="start" x="0" y="433" transform="translate(552.73,0) rotate(90,0,427)" style="font-family: 'Open Sans', verdana, arial, sans-serif; font-size: 12px; fill: rgb(68, 68, 68); fill-opacity: 1; white-space: pre;">08 September 2017</text></g><g class="xtick"><text text-anchor="start" x="0" y="433" transform="translate(567.27,0) rotate(90,0,427)" style="font-family: 'Open Sans', verdana, arial, sans-serif; font-size: 12px; fill: rgb(68, 68, 68); fill-opacity: 1; white-space: pre;">09 September 2017</text></g><g class="xtick"><text text-anchor="start" x="0" y="433" transform="translate(581.82,0) rotate(90,0,427)" style="font-family: 'Open Sans', verdana, arial, sans-serif; font-size: 12px; fill: rgb(68, 68, 68); fill-opacity: 1; white-space: pre;">10 September 2017</text></g><g class="xtick"><text text-anchor="start" x="0" y="433" transform="translate(596.36,0) rotate(90,0,427)" style="font-family: 'Open Sans', verdana, arial, sans-serif; font-size: 12px; fill: rgb(68, 68, 68); fill-opacity: 1; white-space: pre;">11 September 2017</text></g><g class="xtick"><text text-anchor="start" x="0" y="433" transform="translate(610.91,0) rotate(90,0,427)" style="font-family: 'Open Sans', verdana, arial, sans-serif; font-size: 12px; fill: rgb(68, 68, 68); fill-opacity: 1; white-space: pre;">12 September 2017</text></g><g class="xtick"><text text-anchor="start" x="0" y="433" transform="translate(625.45,0) rotate(90,0,427)" style="font-family: 'Open Sans', verdana, arial, sans-serif; font-size: 12px; fill: rgb(68, 68, 68); fill-opacity: 1; white-space: pre;">13 September 2017</text></g><g class="xtick"><text text-anchor="start" x="0" y="433" transform="translate(640,0) rotate(90,0,427)" style="font-family: 'Open Sans', verdana, arial, sans-serif; font-size: 12px; fill: rgb(68, 68, 68); fill-opacity: 1; white-space: pre;">15 September 2017</text></g></g><g class="yaxislayer-above" transform="translate(80,100)"><g class="ytick"><text text-anchor="end" x="-1" y="4.199999999999999" transform="translate(0,408.95)" style="font-family: 'Open Sans', verdana, arial, sans-serif; font-size: 12px; fill: rgb(68, 68, 68); fill-opacity: 1; white-space: pre;">0</text></g><g class="ytick"><text text-anchor="end" x="-1" y="4.199999999999999" transform="translate(0,359.21)" style="font-family: 'Open Sans', verdana, arial, sans-serif; font-size: 12px; fill: rgb(68, 68, 68); fill-opacity: 1; white-space: pre;">5</text></g><g class="ytick"><text text-anchor="end" x="-1" y="4.199999999999999" transform="translate(0,309.47)" style="font-family: 'Open Sans', verdana, arial, sans-serif; font-size: 12px; fill: rgb(68, 68, 68); fill-opacity: 1; white-space: pre;">10</text></g><g class="ytick"><text text-anchor="end" x="-1" y="4.199999999999999" transform="translate(0,259.74)" style="font-family: 'Open Sans', verdana, arial, sans-serif; font-size: 12px; fill: rgb(68, 68, 68); fill-opacity: 1; white-space: pre;">15</text></g><g class="ytick"><text text-anchor="end" x="-1" y="4.199999999999999" transform="translate(0,210)" style="font-family: 'Open Sans', verdana, arial, sans-serif; font-size: 12px; fill: rgb(68, 68, 68); fill-opacity: 1; white-space: pre;">20</text></g><g class="ytick"><text text-anchor="end" x="-1" y="4.199999999999999" transform="translate(0,160.26)" style="font-family: 'Open Sans', verdana, arial, sans-serif; font-size: 12px; fill: rgb(68, 68, 68); fill-opacity: 1; white-space: pre;">25</text></g><g class="ytick"><text text-anchor="end" x="-1" y="4.199999999999999" transform="translate(0,110.53)" style="font-family: 'Open Sans', verdana, arial, sans-serif; font-size: 12px; fill: rgb(68, 68, 68); fill-opacity: 1; white-space: pre;">30</text></g><g class="ytick"><text text-anchor="end" x="-1" y="4.199999999999999" transform="translate(0,60.79)" style="font-family: 'Open Sans', verdana, arial, sans-serif; font-size: 12px; fill: rgb(68, 68, 68); fill-opacity: 1; white-space: pre;">35</text></g><g class="ytick"><text text-anchor="end" x="-1" y="4.199999999999999" transform="translate(0,11.05)" style="font-family: 'Open Sans', verdana, arial, sans-serif; font-size: 12px; fill: rgb(68, 68, 68); fill-opacity: 1; white-space: pre;">40</text></g></g><g class="overaxes-above"/></g></g><g class="ternarylayer"/><g class="geolayer"/><g class="layer-above"><g class="imagelayer"/><g class="shapelayer"/></g><g class="pielayer"/><g class="glimages"/><g class="infolayer"><g class="g-gtitle"/><g class="g-xtitle"/><g class="g-ytitle"/></g></svg>